<svg xmlns="http://www.w3.org/2000/svg" width="50" height="8" fill="none" viewBox="0 0 50 8">
  <path fill="#D7D7D7" d="M9.775 6.025a1.03 1.03 0 0 1-.325-.05c-.317-.067-.542-.258-.675-.575-.1-.283-.075-.6.075-.95.167-.35.383-.742.65-1.175.1-.15.192-.3.275-.45.1-.167.183-.317.25-.45.033-.05.058-.092.075-.125a.97.97 0 0 1 .05-.125c-.5-.083-1.083-.1-1.75-.05-.65.033-1.383.158-2.2.375-.717.183-1.492.425-2.325.725a36.04 36.04 0 0 0-2.6 1.025.781.781 0 0 1-.55 0 .682.682 0 0 1-.4-.375A.635.635 0 0 1 .3 3.25c.083-.217.217-.358.4-.425A35.873 35.873 0 0 1 3.375 1.75 22.262 22.262 0 0 1 5.825 1C7.875.483 9.55.4 10.85.75c.383.1.65.333.8.7.15.367.117.775-.1 1.225-.217.45-.475.917-.775 1.4a1.236 1.236 0 0 1-.075.125c-.033.05-.067.108-.1.175.383-.083.95-.25 1.7-.5s1.783-.617 3.1-1.1a.643.643 0 0 1 .55.05c.2.083.333.225.4.425a.692.692 0 0 1 0 .575.77.77 0 0 1-.45.4c-.767.267-1.467.508-2.1.725-.633.217-1.2.4-1.7.55a29.5 29.5 0 0 1-1.525.425c-.35.067-.617.1-.8.1Zm11.647.25a.732.732 0 0 1-.5-.175c-.267-.217-.342-.492-.225-.825 0-.017.058-.217.175-.6l.45-1.3c.083-.283.158-.525.225-.725l.175-.575c-.45.167-1 .375-1.65.625-.65.233-1.334.483-2.05.75-.7.267-1.384.525-2.05.775a.702.702 0 0 1-.55-.025.86.86 0 0 1-.425-.45.643.643 0 0 1 .05-.55.76.76 0 0 1 .425-.425l2.325-.825a286 286 0 0 1 2.225-.825 376.76 376.76 0 0 1 1.675-.65l.65-.25a1.24 1.24 0 0 1 .25-.025.34.34 0 0 1 .225.025c.233.033.4.167.5.4.083.133.116.308.1.525 0 .2-.042.492-.125.875-.05.217-.117.458-.2.725-.067.25-.159.542-.275.875a2.453 2.453 0 0 1-.05.175c-.017.05-.034.108-.05.175a24.77 24.77 0 0 1 2.45-1.15.636.636 0 0 1 .55 0c.2.067.333.192.4.375.1.183.108.375.025.575a.772.772 0 0 1-.4.425c-.75.333-1.425.65-2.025.95-.584.3-1.05.542-1.4.725l-.525.275a.566.566 0 0 1-.375.125ZM27.439 7.7c-.117 0-.234-.017-.35-.05l-.35-.05a.908.908 0 0 1-.626-.525c-.15-.333-.15-.733 0-1.2.167-.483.434-1.1.8-1.85a6 6 0 0 0 .2-.45c.084-.167.159-.325.226-.475-.217.083-.45.225-.7.425-.234.183-.476.375-.726.575a.814.814 0 0 1-.55.15.85.85 0 0 1-.524-.275.719.719 0 0 1-.125-.55.82.82 0 0 1 .25-.525c.233-.167.475-.35.725-.55.266-.2.533-.367.8-.5.683-.35 1.308-.442 1.874-.275.267.05.467.217.6.5.134.267.125.6-.024 1-.134.4-.367.942-.7 1.625-.084.2-.175.4-.276.6-.083.2-.166.392-.25.575a.557.557 0 0 1-.075.175l-.05.15c.35-.05.859-.225 1.525-.525.684-.317 1.6-.933 2.75-1.85.617-.483 1.175-.95 1.675-1.4.5-.467.9-.85 1.2-1.15l.45-.45c.2-.233.442-.308.725-.225a.486.486 0 0 1 .326.175c.083.083.15.167.2.25.116.233.124.508.025.825-.084.3-.267.792-.55 1.475l-.3.65a11.05 11.05 0 0 1-.25.6 2.453 2.453 0 0 1-.05.175.223.223 0 0 1-.026.1c.317-.05.65-.183 1-.4a9.482 9.482 0 0 0 1.05-.775c.35-.283.642-.525.876-.725a.71.71 0 0 1 .55-.2c.2.017.374.1.524.25.134.167.192.35.176.55a.69.69 0 0 1-.25.525c-.517.45-1.05.875-1.6 1.275-.534.4-1.075.7-1.625.9a2.841 2.841 0 0 1-1.625.075c-.267-.117-.459-.283-.575-.5a1.492 1.492 0 0 1-.1-.775c.05-.283.15-.633.3-1.05a7.92 7.92 0 0 1-.575.475c-.184.15-.384.317-.6.5-2.3 1.817-4.092 2.725-5.375 2.725Zm17.005-1.425a.732.732 0 0 1-.5-.175c-.267-.217-.342-.492-.225-.825 0-.017.059-.217.175-.6.134-.383.284-.817.45-1.3.084-.283.158-.525.225-.725l.175-.575c-.45.167-1 .375-1.65.625-.65.233-1.333.483-2.05.75-.7.267-1.383.525-2.05.775a.702.702 0 0 1-.55-.025.861.861 0 0 1-.425-.45.644.644 0 0 1 .05-.55.761.761 0 0 1 .425-.425l2.325-.825c.8-.3 1.542-.575 2.225-.825a386.675 386.675 0 0 1 2.325-.9c.084-.017.167-.025.25-.025a.34.34 0 0 1 .225.025c.233.033.4.167.5.4.084.133.117.308.1.525 0 .2-.041.492-.125.875-.05.217-.117.458-.2.725-.066.25-.158.542-.275.875a2.352 2.352 0 0 1-.05.175c-.016.05-.033.108-.05.175a24.88 24.88 0 0 1 2.45-1.15.636.636 0 0 1 .55 0c.2.067.334.192.4.375.1.183.108.375.025.575a.771.771 0 0 1-.4.425c-.75.333-1.425.65-2.025.95-.583.3-1.05.542-1.4.725l-.525.275a.566.566 0 0 1-.375.125Z"/>
</svg>
