<svg xmlns="http://www.w3.org/2000/svg" width="101" height="9" fill="none" viewBox="0 0 101 9">
  <path fill="#D7D7D7" d="M4.15 8.75c-.083 0-.167-.008-.25-.025a1.65 1.65 0 0 1-.275-.025c-.2-.067-.367-.208-.5-.425-.067-.133-.1-.317-.1-.55 0-.233.075-.617.225-1.15.15-.533.392-1.325.725-2.375-.367.133-.792.292-1.275.475-.467.183-.95.367-1.45.55A.702.702 0 0 1 .7 5.2a.86.86 0 0 1-.425-.45.643.643 0 0 1 .05-.55.76.76 0 0 1 .425-.425c.717-.267 1.383-.517 2-.75a297.232 297.232 0 0 0 2.15-.8.673.673 0 0 1 .475-.025c.217.05.375.175.475.375.083.15.108.283.075.4a3.727 3.727 0 0 1-.075.375.893.893 0 0 0-.075.225 3.52 3.52 0 0 1-.075.25 13.71 13.71 0 0 0-.375 1.05c-.117.4-.242.808-.375 1.225a10.151 10.151 0 0 0-.325 1.05c.317-.067.775-.258 1.375-.575A32.316 32.316 0 0 0 7.65 5.6c.6-.383 1.208-.783 1.825-1.2l.4-.25c.15-.083.283-.175.4-.275a.71.71 0 0 1 .575-.1.691.691 0 0 1 .5.325c.117.167.15.35.1.55a.678.678 0 0 1-.325.475 9.2 9.2 0 0 1-.425.3 17.33 17.33 0 0 0-.425.275c-.633.417-1.25.817-1.85 1.2-.6.383-1.167.717-1.7 1-1.083.567-1.942.85-2.575.85Zm9.916-2.225a.65.65 0 0 1-.2-.025c-.266-.067-.458-.167-.575-.3-.1-.15-.167-.267-.2-.35-.116-.367-.075-.742.125-1.125.2-.4.459-.817.775-1.25.1-.133.192-.275.275-.425.1-.167.184-.308.25-.425a.74.74 0 0 0 .075-.1 4.34 4.34 0 0 0-.375.15 3.514 3.514 0 0 0-.475.3c-.3.183-.617.425-.95.725a43.26 43.26 0 0 0-1.025.9l-.275.225-.25.25a.766.766 0 0 1-.525.2.715.715 0 0 1-.525-.275.639.639 0 0 1-.2-.525.75.75 0 0 1 .25-.525c.084-.083.175-.167.275-.25a3.36 3.36 0 0 1 .25-.225 26.597 26.597 0 0 1 1.575-1.325 6.7 6.7 0 0 1 1.525-.95c.5-.217.984-.258 1.45-.125.284.067.483.183.6.35.133.15.209.283.225.4.15.367.117.758-.1 1.175-.216.4-.492.842-.825 1.325a.969.969 0 0 0-.125.175 1.31 1.31 0 0 1-.125.2c.25-.1.575-.225.975-.375s.883-.333 1.45-.55a.747.747 0 0 1 .6.05.681.681 0 0 1 .375.425.639.639 0 0 1-.025.575.78.78 0 0 1-.4.4l-1.45.5a31.846 31.846 0 0 0-1.55.575 7.839 7.839 0 0 0-.325.1 3.14 3.14 0 0 0-.3.1 1.272 1.272 0 0 1-.25.025Zm9.26.75a.732.732 0 0 1-.5-.175c-.267-.217-.342-.492-.225-.825 0-.017.058-.217.175-.6l.45-1.3c.083-.283.158-.525.225-.725l.175-.575c-.45.167-1 .375-1.65.625-.65.233-1.333.483-2.05.75-.7.267-1.383.525-2.05.775a.702.702 0 0 1-.55-.025.86.86 0 0 1-.425-.45.643.643 0 0 1 .05-.55.76.76 0 0 1 .425-.425l2.325-.825c.8-.3 1.542-.575 2.225-.825a381.78 381.78 0 0 1 1.675-.65l.65-.25a1.27 1.27 0 0 1 .25-.025.34.34 0 0 1 .225.025c.233.033.4.167.5.4.083.133.117.308.1.525 0 .2-.042.492-.125.875-.05.217-.117.458-.2.725-.067.25-.158.542-.275.875a2.453 2.453 0 0 1-.05.175c-.017.05-.033.108-.05.175a24.88 24.88 0 0 1 2.45-1.15.636.636 0 0 1 .55 0c.2.067.333.192.4.375.1.183.108.375.025.575a.772.772 0 0 1-.4.425c-.75.333-1.425.65-2.025.95-.583.3-1.05.542-1.4.725l-.525.275a.566.566 0 0 1-.375.125ZM29.343 8.7c-.117 0-.234-.017-.35-.05l-.35-.05a.908.908 0 0 1-.625-.525c-.15-.333-.15-.733 0-1.2.166-.483.433-1.1.8-1.85a6 6 0 0 0 .2-.45c.083-.167.158-.325.225-.475-.217.083-.45.225-.7.425-.234.183-.475.375-.725.575a.814.814 0 0 1-.55.15.85.85 0 0 1-.525-.275.719.719 0 0 1-.125-.55.82.82 0 0 1 .25-.525c.233-.167.475-.35.725-.55.266-.2.533-.367.8-.5.683-.35 1.308-.442 1.875-.275.266.05.466.217.6.5.133.267.125.6-.025 1-.134.4-.367.942-.7 1.625-.084.2-.175.4-.275.6-.084.2-.167.392-.25.575a.557.557 0 0 1-.075.175l-.05.15c.35-.05.858-.225 1.525-.525.683-.317 1.6-.933 2.75-1.85.616-.483 1.175-.95 1.675-1.4a50.326 50.326 0 0 0 1.65-1.6c.2-.233.441-.308.725-.225a.486.486 0 0 1 .325.175c.083.083.15.167.2.25.116.233.125.508.025.825-.084.3-.267.792-.55 1.475l-.3.65a11.05 11.05 0 0 1-.25.6 2.453 2.453 0 0 1-.05.175.223.223 0 0 1-.025.1c.316-.05.65-.183 1-.4a9.482 9.482 0 0 0 1.05-.775c.35-.283.641-.525.875-.725a.71.71 0 0 1 .55-.2c.2.017.375.1.525.25.133.167.191.35.175.55a.69.69 0 0 1-.25.525c-.517.45-1.05.875-1.6 1.275-.534.4-1.075.7-1.625.9a2.841 2.841 0 0 1-1.625.075c-.267-.117-.459-.283-.575-.5a1.492 1.492 0 0 1-.1-.775c.05-.283.15-.633.3-1.05a7.92 7.92 0 0 1-.575.475c-.184.15-.384.317-.6.5-2.3 1.817-4.092 2.725-5.375 2.725Zm13.305 0a1.27 1.27 0 0 1-.35-.05l-.35-.05a.908.908 0 0 1-.625-.525c-.15-.333-.15-.733 0-1.2.167-.483.434-1.1.8-1.85a5.92 5.92 0 0 0 .2-.45c.084-.167.159-.325.225-.475a2.71 2.71 0 0 0-.7.425c-.233.183-.475.375-.725.575a.814.814 0 0 1-.55.15.85.85 0 0 1-.525-.275.72.72 0 0 1-.125-.55c.017-.2.1-.375.25-.525a16.7 16.7 0 0 0 .725-.55c.267-.2.534-.367.8-.5.684-.35 1.309-.442 1.875-.275.267.05.467.217.6.5.134.267.125.6-.025 1-.133.4-.366.942-.7 1.625-.083.2-.175.4-.275.6-.083.2-.166.392-.25.575a.553.553 0 0 1-.075.175l-.05.15c.35-.05.859-.225 1.525-.525.684-.317 1.6-.933 2.75-1.85.617-.483 1.175-.95 1.675-1.4.5-.467.9-.85 1.2-1.15l.45-.45c.2-.233.442-.308.725-.225a.486.486 0 0 1 .325.175c.084.083.15.167.2.25.117.233.125.508.025.825-.083.3-.266.792-.55 1.475l-.3.65a10.05 10.05 0 0 1-.25.6 2.352 2.352 0 0 1-.05.175.221.221 0 0 1-.025.1c.317-.05.65-.183 1-.4a9.463 9.463 0 0 0 1.05-.775c.35-.283.642-.525.875-.725a.71.71 0 0 1 .55-.2c.2.017.375.1.525.25a.75.75 0 0 1 .175.55c0 .2-.083.375-.25.525-.516.45-1.05.875-1.6 1.275-.533.4-1.075.7-1.625.9a2.841 2.841 0 0 1-1.625.075c-.266-.117-.458-.283-.575-.5a1.496 1.496 0 0 1-.1-.775c.05-.283.15-.633.3-1.05a7.899 7.899 0 0 1-.575.475c-.183.15-.383.317-.6.5-2.3 1.817-4.091 2.725-5.375 2.725Zm17.006-1.425a.732.732 0 0 1-.5-.175c-.267-.217-.342-.492-.225-.825 0-.017.058-.217.175-.6l.45-1.3c.083-.283.158-.525.225-.725l.175-.575c-.45.167-1 .375-1.65.625-.65.233-1.333.483-2.05.75-.7.267-1.383.525-2.05.775a.702.702 0 0 1-.55-.025.86.86 0 0 1-.425-.45.643.643 0 0 1 .05-.55.76.76 0 0 1 .425-.425l2.325-.825c.8-.3 1.542-.575 2.225-.825a381.78 381.78 0 0 1 2.325-.9c.083-.017.167-.025.25-.025a.34.34 0 0 1 .225.025c.233.033.4.167.5.4.083.133.117.308.1.525 0 .2-.042.492-.125.875-.05.217-.117.458-.2.725-.067.25-.158.542-.275.875a2.401 2.401 0 0 1-.05.175c-.017.05-.033.108-.05.175a24.88 24.88 0 0 1 2.45-1.15.636.636 0 0 1 .55 0c.2.067.333.192.4.375.1.183.108.375.025.575a.772.772 0 0 1-.4.425c-.75.333-1.425.65-2.025.95-.583.3-1.05.542-1.4.725l-.525.275a.566.566 0 0 1-.375.125Zm7.342-.75a.65.65 0 0 1-.2-.025c-.267-.067-.458-.167-.575-.3-.1-.15-.167-.267-.2-.35-.117-.367-.075-.742.125-1.125.2-.4.458-.817.775-1.25.1-.133.192-.275.275-.425.1-.167.183-.308.25-.425a.74.74 0 0 0 .075-.1 4.34 4.34 0 0 0-.375.15 3.514 3.514 0 0 0-.475.3c-.3.183-.617.425-.95.725a43.26 43.26 0 0 0-1.025.9l-.275.225-.25.25a.766.766 0 0 1-.525.2A.715.715 0 0 1 63.12 5a.639.639 0 0 1-.2-.525.75.75 0 0 1 .25-.525c.083-.083.175-.167.275-.25.083-.083.167-.158.25-.225A26.597 26.597 0 0 1 65.27 2.15a6.7 6.7 0 0 1 1.525-.95c.5-.217.983-.258 1.45-.125.283.067.483.183.6.35.133.15.208.283.225.4.15.367.117.758-.1 1.175-.217.4-.492.842-.825 1.325a.969.969 0 0 0-.125.175 1.31 1.31 0 0 1-.125.2c.25-.1.575-.225.975-.375s.883-.333 1.45-.55a.747.747 0 0 1 .6.05.681.681 0 0 1 .375.425.639.639 0 0 1-.025.575.78.78 0 0 1-.4.4l-1.45.5a31.846 31.846 0 0 0-1.55.575 7.839 7.839 0 0 0-.325.1 3.14 3.14 0 0 0-.3.1 1.272 1.272 0 0 1-.25.025Zm12.335.5a1.03 1.03 0 0 1-.325-.05c-.317-.067-.542-.258-.675-.575-.1-.283-.075-.6.075-.95.166-.35.383-.742.65-1.175.1-.15.191-.3.275-.45.1-.167.183-.317.25-.45.033-.05.058-.092.075-.125a.956.956 0 0 1 .05-.125c-.5-.083-1.084-.1-1.75-.05-.65.033-1.384.158-2.2.375a25.75 25.75 0 0 0-2.325.725c-.817.283-1.684.625-2.6 1.025a.781.781 0 0 1-.55 0 .681.681 0 0 1-.4-.375.635.635 0 0 1-.025-.575c.083-.217.216-.358.4-.425A35.868 35.868 0 0 1 72.93 2.75 22.255 22.255 0 0 1 75.38 2c2.05-.517 3.725-.6 5.025-.25.383.1.65.333.8.7.15.367.116.775-.1 1.225-.217.45-.475.917-.775 1.4a1.236 1.236 0 0 1-.075.125c-.034.05-.067.108-.1.175.383-.083.95-.25 1.7-.5s1.783-.617 3.1-1.1a.643.643 0 0 1 .55.05c.2.083.333.225.4.425a.692.692 0 0 1 0 .575.77.77 0 0 1-.45.4c-.767.267-1.467.508-2.1.725-.634.217-1.2.4-1.7.55a29.5 29.5 0 0 1-1.525.425c-.35.067-.617.1-.8.1Zm14.721 0c-.116 0-.225-.017-.325-.05-.316-.067-.541-.258-.675-.575-.1-.283-.075-.6.075-.95.167-.35.384-.742.65-1.175.1-.15.192-.3.275-.45.1-.167.184-.317.25-.45a1.2 1.2 0 0 0 .075-.125.984.984 0 0 1 .05-.125c-.5-.083-1.083-.1-1.75-.05-.65.033-1.383.158-2.2.375a25.77 25.77 0 0 0-2.325.725c-.816.283-1.683.625-2.6 1.025a.781.781 0 0 1-.55 0 .682.682 0 0 1-.4-.375.635.635 0 0 1-.025-.575c.084-.217.217-.358.4-.425a35.885 35.885 0 0 1 2.675-1.075 22.268 22.268 0 0 1 2.45-.75c2.05-.517 3.725-.6 5.025-.25.384.1.65.333.8.7.15.367.117.775-.1 1.225-.216.45-.475.917-.775 1.4a1.2 1.2 0 0 1-.075.125c-.033.05-.066.108-.1.175.384-.083.95-.25 1.7-.5s1.784-.617 3.1-1.1a.643.643 0 0 1 .55.05c.2.083.334.225.4.425a.687.687 0 0 1 0 .575.767.767 0 0 1-.45.4c-.766.267-1.466.508-2.1.725-.633.217-1.2.4-1.7.55-.666.2-1.175.342-1.525.425-.35.067-.616.1-.8.1Z"/>
</svg>
